<svg viewBox="0 0 48 48" xmlns="http://www.w3.org/2000/svg" fill="#000000"><g id="SVGRepo_bgCarrier" stroke-width="0"></g><g id="SVGRepo_tracerCarrier" stroke-linecap="round" stroke-linejoin="round" stroke="#CCCCCC" stroke-width="1.9200000000000004"><defs><style>.a,.b{fill:none;stroke:#000000;stroke-linecap:round;stroke-linejoin:round;}</style></defs><path class="a" d="M33.8092,34.8772,26.8725,41.814a5.7258,5.7258,0,0,1-8.1154,0L8.6127,31.67a5.726,5.726,0,0,1,0-8.1155L18.7571,13.41a5.7258,5.7258,0,0,1,8.1154,0L34.5,21.0373"></path><path class="b" d="M18.7571,13.41,27.7647,4.5"></path><path class="a" d="M19.5838,27.5918h21.49"></path></g><g id="SVGRepo_iconCarrier"><defs><style>.a,.b{fill:none;stroke:#000000;stroke-linecap:round;stroke-linejoin:round;}</style></defs><path class="a" d="M33.8092,34.8772,26.8725,41.814a5.7258,5.7258,0,0,1-8.1154,0L8.6127,31.67a5.726,5.726,0,0,1,0-8.1155L18.7571,13.41a5.7258,5.7258,0,0,1,8.1154,0L34.5,21.0373"></path><path class="b" d="M18.7571,13.41,27.7647,4.5"></path><path class="a" d="M19.5838,27.5918h21.49"></path></g></svg>