<svg version="1.1" id="Layer_1" xmlns="http://www.w3.org/2000/svg" xmlns:xlink="http://www.w3.org/1999/xlink" viewBox="0 0 460 460" xml:space="preserve" fill="#000000"><g id="SVGRepo_bgCarrier" stroke-width="0"></g><g id="SVGRepo_tracerCarrier" stroke-linecap="round" stroke-linejoin="round"></g><g id="SVGRepo_iconCarrier"> <polygon style="fill:#2a55d4;" points="230.004,44.477 0,202.274 460,202.274 "></polygon> <polygon style="opacity:0.3;fill:#2a55d4;enable-background:new ;" points="112.883,167.274 230.003,86.922 347.12,167.274 "></polygon> <rect x="20.972" y="370.522" style="fill:#2a55d4;" width="418.058" height="45.001"></rect> <rect x="61.803" y="202.274" style="fill:#2a55d4;" width="73.842" height="168.247"></rect> <rect x="193.083" y="202.274" style="fill:#2a55d4;" width="73.842" height="168.247"></rect> <rect x="324.347" y="202.274" style="fill:#2a55d4;" width="73.842" height="168.247"></rect> <rect x="20.972" y="202.274" style="fill:#2a55d4;" width="418.058" height="11.726"></rect> <rect x="20.972" y="370.521" style="fill:#2a55d4;" width="418.058" height="22.501"></rect> <path style="opacity:0.3;fill:#2a55d4;enable-background:new ;" d="M20.972,202.274V214h77.752v156.521H20.972v22.501H439.03 v-22.501h-40.84V214h40.84v-11.726H20.972z M135.645,214H230v156.521h-94.355L135.645,214L135.645,214z M361.268,370.521h-94.343 V214h94.343V370.521z"></path> </g></svg>